# xmcd
#
# Track frame offsets: 
#        150
#        13260
#        27417
#        44336
#        69482
#        86608
#        97165
#        114044
#        127012
#        138804
#        156138
#        166554
#        179768
#
# Disc length: 2602 seconds
#
# Revision: 1
# Processed by: cddbd v1.5.2PL0 Copyright (c) Steve Scherf et al.
# Submitted via: ExactAudioCopy v1.0b3
#
DISCID=a80a280d
DTITLE=Raoul And The Big Time - You My People
DYEAR=2009
DGENRE=Blues
TTITLE0=You My People
TTITLE1=One Card Trump
TTITLE2=Live Without Me
TTITLE3=Where The Wind Blows On Shore
TTITLE4=Movin' Out
TTITLE5=All To Myself
TTITLE6=Born To Love
TTITLE7=Gypsy Woman
TTITLE8=Breathin' In
TTITLE9=Killing My World
TTITLE10=Sad State Of Affairs
TTITLE11=Menthol Mama
TTITLE12=We Can Change
EXTD=
EXTT0=
EXTT1=
EXTT2=
EXTT3=
EXTT4=
EXTT5=
EXTT6=
EXTT7=
EXTT8=
EXTT9=
EXTT10=
EXTT11=
EXTT12=
PLAYORDER=
